<svg xmlns="http://www.w3.org/2000/svg" viewBox="-64 -14 169 68" enable-background="new -64 -14 169 68"><path fill="#ED1C24" d="M-64-14v55.9c0 6.8 5.4 12.1 12.1 12.1h145c6.8 0 11.9-5.4 11.9-12.1v-55.9h-169z"/><path d="M60 32.4h6.8c.6 0 1-.4 1-1v-3c0-.6-.4-1-1-1h-6.2c-3.4 0-4.6-1.6-4.6-6s1.2-6 4.6-6h6.2c.6 0 1-.4 1-1v-3c0-.6-.4-1-1-1h-6.8c-6.8 0-9.3 3.4-9.3 10.9-.2 7.7 2.6 11.1 9.3 11.1m-26.6-6.7c0-1.2.8-1.8 2-1.8h7.4v3.8h-7.4c-1.4 0-2-.8-2-2m5.9-15.1h-8.9c-.6 0-1 .4-1 1v3c0 .6.4 1 1 1h8.6c3 0 3.8 1.2 3.8 3.8h-7.6c-4.6 0-7 2.4-7 6.6 0 4.4 2.4 6.6 7 6.6h11.9c.6 0 1-.4 1-1v-12.7c0-5.8-2.2-8.3-8.8-8.3m-81.7 17.6h16.9c.6 0 1-.4 1-1v-3c0-.6-.4-1-1-1h-16.9c-.6 0-1 .4-1 1v3c0 .7.4 1 1 1m0-8.5h16.9c.6 0 1-.4 1-1v-3c0-.6-.4-1-1-1h-16.9c-.6 0-1 .4-1 1v3c0 .6.4 1 1 1m45.2 7.8h-8c-2.8 0-4.2-1-4.4-3.4h10.8c.6 0 1-.4 1-1v-3c0-.6-.4-1-1-1h-10.8c.4-2.6 1.6-3.6 4.4-3.6h7.8c.6 0 1-.4 1-1v-3c0-.6-.4-1-1-1h-8.2c-6.8 0-9.3 3.4-9.3 10.9s2.6 10.9 9.3 10.9h8.4c.6 0 1-.4 1-1v-3c0-.4-.4-.8-1-.8m78.1 0h-4.4c-1 0-1.6-.8-1.6-2v-9.9h5.6c.6 0 1-.4 1-1v-3c0-.6-.4-1-1-1h-5.6v-3.2c0-.6-.4-1-1-1h-3.4c-.6 0-1 .4-1 1v18.5c0 4.6 2.2 6.6 6.6 6.6h4.8c.6 0 1-.4 1-1v-3c0-.6-.4-1-1-1m-53.3 3.9l-7.8-10.3 7.4-9.5c.4-.6 0-1-.4-1h-4.4c-.6 0-.8.4-1.2.6l-4.4 5.8-4.6-5.8c-.2-.4-.6-.6-1.2-.6h-4.5c-.6 0-.8.6-.4 1l7.4 9.7-7.8 10.1c-.4.6 0 1 .4 1h4.4c.6 0 .8-.4 1.2-.6l4.8-6.4 4.8 6.4c.2.4.6.6 1.2.6h4.5c.6 0 .8-.6.6-1" fill="#fff"/></svg>